*
*
G04 PADS Layout (Build Number 2005.266.2) generated Gerber (RS-274-X) file*
G04 PC Version=2.1*
*
%IN "PCB-BK5812_module_QFN24"*%
*
%MOIN*%
*
%FSLAX35Y35*%
*
*
*
*
G04 PC Standard Apertures*
*
*
G04 Thermal Relief Aperture macro.*
%AMTER*
1,1,$1,0,0*
1,0,$1-$2,0,0*
21,0,$3,$4,0,0,45*
21,0,$3,$4,0,0,135*
%
*
*
G04 Annular Aperture macro.*
%AMANN*
1,1,$1,0,0*
1,0,$2,0,0*
%
*
*
G04 Odd Aperture macro.*
%AMODD*
1,1,$1,0,0*
1,0,$1-0.005,0,0*
%
*
*
G04 PC Custom Aperture Macros*
*
*
*
*
*
*
G04 PC Aperture Table*
*
%ADD010R,0.055X0.055*%
%ADD023C,0.015*%
%ADD026C,0.01*%
%ADD050C,0.016*%
*
*
*
*
G04 PC Copper Outlines (0)*
G04 Layer Name PCB-BK5812_module_QFN24 - dark (0)*
%LPD*%
*
*
G04 PC Area=ANP000139*
G75*
G36*
G01*
X459131Y466570D02*
Y554405D01*
X395530D01*
Y466570D01*
X459131D01*
G37*
G74*
*
*
G04 PC Void Outlines (0)*
G04 Layer Name PCB-BK5812_module_QFN24 - clear (0)*
%LPC*%
*
*
G04 PC Area=ANP000139*
G75*
G36*
G01*
X447590Y479205D02*
Y473705D01*
G02*
X445909Y472024I-1681J0D01*
G01*
X440409D01*
G02*
X438728Y473705I0J1681D01*
G01*
Y479205D01*
G02*
X440409Y480887I1681J0D01*
G01*
X445909D01*
G02*
X447590Y479205I0J-1682D01*
G37*
G74*
*
G75*
G36*
G01*
Y489205D02*
Y483705D01*
G02*
X445909Y482024I-1681J0D01*
G01*
X440409D01*
G02*
X438728Y483705I0J1681D01*
G01*
Y489205D01*
G02*
X440409Y490887I1681J0D01*
G01*
X445909D01*
G02*
X447590Y489205I0J-1682D01*
G37*
G74*
*
G75*
G36*
G01*
X437590Y479205D02*
Y473705D01*
G02*
X435909Y472024I-1681J0D01*
G01*
X430409D01*
G02*
X428728Y473705I0J1681D01*
G01*
Y479205D01*
G02*
X430409Y480887I1681J0D01*
G01*
X435909D01*
G02*
X437590Y479205I0J-1682D01*
G37*
G74*
*
G75*
G36*
G01*
Y489205D02*
Y483705D01*
G02*
X435909Y482024I-1681J0D01*
G01*
X430409D01*
G02*
X428728Y483705I0J1681D01*
G01*
Y489205D01*
G02*
X430409Y490887I1681J0D01*
G01*
X435909D01*
G02*
X437590Y489205I0J-1682D01*
G37*
G74*
*
G75*
G36*
G01*
X427590Y479205D02*
Y473705D01*
G02*
X425909Y472024I-1681J0D01*
G01*
X420409D01*
G02*
X418728Y473705I0J1681D01*
G01*
Y479205D01*
G02*
X420409Y480887I1681J0D01*
G01*
X425909D01*
G02*
X427590Y479205I0J-1682D01*
G37*
G74*
*
G75*
G36*
G01*
Y489205D02*
Y483705D01*
G02*
X425909Y482024I-1681J0D01*
G01*
X420409D01*
G02*
X418728Y483705I0J1681D01*
G01*
Y489205D01*
G02*
X420409Y490887I1681J0D01*
G01*
X425909D01*
G02*
X427590Y489205I0J-1682D01*
G37*
G74*
*
G75*
G36*
G01*
X417590Y479205D02*
Y473705D01*
G02*
X415909Y472024I-1681J0D01*
G01*
X410409D01*
G02*
X408728Y473705I0J1681D01*
G01*
Y479205D01*
G02*
X410409Y480887I1681J0D01*
G01*
X415909D01*
G02*
X417590Y479205I0J-1682D01*
G37*
G74*
*
G75*
G36*
G01*
Y489205D02*
Y483705D01*
G02*
X415909Y482024I-1681J0D01*
G01*
X410409D01*
G02*
X408728Y483705I0J1681D01*
G01*
Y489205D01*
G02*
X410409Y490887I1681J0D01*
G01*
X415909D01*
G02*
X417590Y489205I0J-1682D01*
G37*
G74*
*
*
G04 PC Copper Outlines (1)*
G04 Layer Name PCB-BK5812_module_QFN24 - dark (1)*
%LPD*%
*
*
G04 PC Area=Custom_Thermal*
*
G04 PC Custom Flashes*
G04 Layer Name PCB-BK5812_module_QFN24 - flashes*
%LPD*%
*
*
G04 PC Circuitry*
G04 Layer Name PCB-BK5812_module_QFN24 - circuitry*
%LPD*%
*
G54D10*
G01X413159Y476455D03*
Y486455D03*
X423159Y476455D03*
Y486455D03*
X433159Y476455D03*
Y486455D03*
X443159Y476455D03*
Y486455D03*
G54D23*
X417098Y480394D02*
X415104Y478400D01*
X417098Y472517D02*
X415104Y474511D01*
X409220Y472517D02*
X411214Y474511D01*
X409220Y480394D02*
X411214Y478400D01*
G54D26*
X459131Y466570D02*
Y554405D01*
X395530*
Y466570*
X459131*
X447590Y479205D02*
Y473705D01*
X445909Y472024D02*
G75*
G03X447590Y473705I0J1681D01*
G01X445909Y472024D02*
X440409D01*
X438728Y473705D02*
G03X440409Y472024I1681J0D01*
G01X438728Y473705D02*
Y479205D01*
X440409Y480887D02*
G03X438728Y479205I0J-1682D01*
G01X440409Y480887D02*
X445909D01*
X447590Y479205D02*
G03X445909Y480887I-1681J0D01*
G01X447590Y489205D02*
Y483705D01*
X445909Y482024D02*
G03X447590Y483705I0J1681D01*
G01X445909Y482024D02*
X440409D01*
X438728Y483705D02*
G03X440409Y482024I1681J0D01*
G01X438728Y483705D02*
Y489205D01*
X440409Y490887D02*
G03X438728Y489205I0J-1682D01*
G01X440409Y490887D02*
X445909D01*
X447590Y489205D02*
G03X445909Y490887I-1681J0D01*
G01X437590Y479205D02*
Y473705D01*
X435909Y472024D02*
G03X437590Y473705I0J1681D01*
G01X435909Y472024D02*
X430409D01*
X428728Y473705D02*
G03X430409Y472024I1681J0D01*
G01X428728Y473705D02*
Y479205D01*
X430409Y480887D02*
G03X428728Y479205I0J-1682D01*
G01X430409Y480887D02*
X435909D01*
X437590Y479205D02*
G03X435909Y480887I-1681J0D01*
G01X437590Y489205D02*
Y483705D01*
X435909Y482024D02*
G03X437590Y483705I0J1681D01*
G01X435909Y482024D02*
X430409D01*
X428728Y483705D02*
G03X430409Y482024I1681J0D01*
G01X428728Y483705D02*
Y489205D01*
X430409Y490887D02*
G03X428728Y489205I0J-1682D01*
G01X430409Y490887D02*
X435909D01*
X437590Y489205D02*
G03X435909Y490887I-1681J0D01*
G01X427590Y479205D02*
Y473705D01*
X425909Y472024D02*
G03X427590Y473705I0J1681D01*
G01X425909Y472024D02*
X420409D01*
X418728Y473705D02*
G03X420409Y472024I1681J0D01*
G01X418728Y473705D02*
Y479205D01*
X420409Y480887D02*
G03X418728Y479205I0J-1682D01*
G01X420409Y480887D02*
X425909D01*
X427590Y479205D02*
G03X425909Y480887I-1681J0D01*
G01X427590Y489205D02*
Y483705D01*
X425909Y482024D02*
G03X427590Y483705I0J1681D01*
G01X425909Y482024D02*
X420409D01*
X418728Y483705D02*
G03X420409Y482024I1681J0D01*
G01X418728Y483705D02*
Y489205D01*
X420409Y490887D02*
G03X418728Y489205I0J-1682D01*
G01X420409Y490887D02*
X425909D01*
X427590Y489205D02*
G03X425909Y490887I-1681J0D01*
G01X417590Y479205D02*
Y473705D01*
X415909Y472024D02*
G03X417590Y473705I0J1681D01*
G01X415909Y472024D02*
X410409D01*
X408728Y473705D02*
G03X410409Y472024I1681J0D01*
G01X408728Y473705D02*
Y479205D01*
X410409Y480887D02*
G03X408728Y479205I0J-1682D01*
G01X410409Y480887D02*
X415909D01*
X417590Y479205D02*
G03X415909Y480887I-1681J0D01*
G01X417590Y489205D02*
Y483705D01*
X415909Y482024D02*
G03X417590Y483705I0J1681D01*
G01X415909Y482024D02*
X410409D01*
X408728Y483705D02*
G03X410409Y482024I1681J0D01*
G01X408728Y483705D02*
Y489205D01*
X410409Y490887D02*
G03X408728Y489205I0J-1682D01*
G01X410409Y490887D02*
X415909D01*
X417590Y489205D02*
G03X415909Y490887I-1681J0D01*
G01X393849Y464889D02*
Y585589D01*
X460812*
Y464889*
X393849*
G54D50*
X396234Y467311D03*
X401906Y472221D03*
X408001Y467311D03*
X408170Y472305D03*
X418414Y467141D03*
X418329Y472136D03*
X428234Y467226D03*
X428149Y472221D03*
X438314Y466979D03*
X438307Y472221D03*
X447698Y466979D03*
X447618Y472108D03*
X458154Y472386D03*
X458258Y467326D03*
X396234Y476792D03*
X402329Y482464D03*
X409253Y481361D03*
X415233Y481451D03*
X418020Y477809D03*
X425767Y481432D03*
X421864Y481563D03*
X427980Y478231D03*
X441939Y481496D03*
X438072Y477585D03*
X447306Y481511D03*
X457658Y481564D03*
X395896Y486358D03*
X395811Y493300D03*
X402245Y493046D03*
X408170Y486612D03*
X415457Y491387D03*
X442557Y491436D03*
X448106Y491116D03*
X457551Y491276D03*
X395980Y505321D03*
X402075Y505490D03*
X415112Y505617D03*
X410304Y499942D03*
X428555Y505105D03*
X433962Y505093D03*
X436502Y505069D03*
X431283Y505079D03*
X440365Y501548D03*
X437263Y496423D03*
X447733Y498106D03*
X450122Y503788D03*
X452844Y505184D03*
X447749Y505079D03*
X457978Y505256D03*
X457497Y498426D03*
X412161Y510593D03*
X411697Y515590D03*
X410299Y510596D03*
X419581Y511395D03*
X428457Y510697D03*
X431185Y510672D03*
X433864Y510686D03*
X436404Y510661D03*
X428457Y508011D03*
X431185Y507985D03*
X433864Y508000D03*
X436404Y507975D03*
X436355Y513397D03*
X433816Y513421D03*
X431136Y513407D03*
X428408Y513433D03*
X446633Y508901D03*
X453232Y514509D03*
X446719Y515358D03*
X453373Y509341D03*
X458031Y514754D03*
X458138Y509738D03*
X395980Y517595D03*
X401991D03*
X415245Y523375D03*
X410200D03*
X420568Y521358D03*
X418248Y521424D03*
X443108Y523783D03*
X440276Y520668D03*
X440489Y516845D03*
X455862Y519787D03*
X447002Y524986D03*
X453373Y519748D03*
X458052Y522633D03*
X458198Y520127D03*
X457833Y524703D03*
X396234Y529786D03*
X401906Y529955D03*
X410364Y530234D03*
X414763Y530417D03*
X431903Y526093D03*
X435780Y530766D03*
X444664Y529891D03*
X439962Y531140D03*
Y535501D03*
X447002Y532491D03*
X453444Y529871D03*
X458052Y527012D03*
X456842Y529022D03*
X396404Y542484D03*
X402329Y542653D03*
X411533Y545628D03*
X410331Y536994D03*
X415118Y538531D03*
X421131Y538949D03*
X417522Y545628D03*
X425836Y545426D03*
X432684Y545586D03*
X435232Y536707D03*
X444498Y537415D03*
X438156Y542008D03*
X439781Y544030D03*
X453216Y536104D03*
X456179Y543678D03*
X446931Y540774D03*
X453090Y540703D03*
X458218Y536104D03*
X458258Y544172D03*
X396488Y549256D03*
X405208D03*
X396742Y553404D03*
X405038Y553574D03*
X411811Y550187D03*
X411726Y553658D03*
X426117Y550018D03*
X417736Y549849D03*
X417743Y553809D03*
X426054Y553758D03*
X434369Y553960D03*
X433228Y549933D03*
X434542Y548278D03*
X444541Y553825D03*
X440913Y547428D03*
X441032Y553832D03*
X453711Y553803D03*
X446789Y547357D03*
X448476Y553885D03*
X458280Y550915D03*
X458251Y546324D03*
X458329Y548561D03*
X458187Y553871D03*
G74*
X0Y0D02*
M02*
