*
*
G04 PADS Layout (Build Number 2005.266.2) generated Gerber (RS-274-X) file*
G04 PC Version=2.1*
*
%IN "PCB-BK5812_module_QFN24"*%
*
%MOIN*%
*
%FSLAX35Y35*%
*
*
*
*
G04 PC Standard Apertures*
*
*
G04 Thermal Relief Aperture macro.*
%AMTER*
1,1,$1,0,0*
1,0,$1-$2,0,0*
21,0,$3,$4,0,0,45*
21,0,$3,$4,0,0,135*
%
*
*
G04 Annular Aperture macro.*
%AMANN*
1,1,$1,0,0*
1,0,$2,0,0*
%
*
*
G04 Odd Aperture macro.*
%AMODD*
1,1,$1,0,0*
1,0,$1-0.005,0,0*
%
*
*
G04 PC Custom Aperture Macros*
*
*
*
*
*
*
G04 PC Aperture Table*
*
%ADD026C,0.01*%
%ADD041C,0.01181*%
%ADD159C,0.001*%
*
*
*
*
G04 PC Copper Outlines (0)*
G04 Layer Name PCB-BK5812_module_QFN24 - dark (0)*
%LPD*%
*
*
G04 PC Area=Custom_Thermal*
*
G04 PC Custom Flashes*
G04 Layer Name PCB-BK5812_module_QFN24 - flashes*
%LPD*%
*
*
G04 PC Circuitry*
G04 Layer Name PCB-BK5812_module_QFN24 - circuitry*
%LPD*%
*
G54D26*
G01X409159Y472455D02*
X417159Y480455D01*
X409159D02*
X417159Y472455D01*
X409159Y482455D02*
X417159Y490455D01*
X409159D02*
X417159Y482455D01*
X419159Y472455D02*
X427159Y480455D01*
X419159D02*
X427159Y472455D01*
X419159Y482455D02*
X427159Y490455D01*
X419159D02*
X427159Y482455D01*
X429159Y472455D02*
X437159Y480455D01*
X429159D02*
X437159Y472455D01*
X429159Y482455D02*
X437159Y490455D01*
X429159D02*
X437159Y482455D01*
X439159Y472455D02*
X447159Y480455D01*
X439159D02*
X447159Y472455D01*
X439159Y482455D02*
X447159Y490455D01*
X439159D02*
X447159Y482455D01*
X392234Y467311D02*
X400234D01*
X396234Y463311D02*
Y471311D01*
X397906Y472221D02*
X405906D01*
X401906Y468221D02*
Y476221D01*
X404001Y467311D02*
X412001D01*
X408001Y463311D02*
Y471311D01*
X404170Y472305D02*
X412170D01*
X408170Y468305D02*
Y476305D01*
X414414Y467141D02*
X422414D01*
X418414Y463141D02*
Y471141D01*
X414329Y472136D02*
X422329D01*
X418329Y468136D02*
Y476136D01*
X424234Y467226D02*
X432234D01*
X428234Y463226D02*
Y471226D01*
X424149Y472221D02*
X432149D01*
X428149Y468221D02*
Y476221D01*
X434314Y466979D02*
X442314D01*
X438314Y462979D02*
Y470979D01*
X434307Y472221D02*
X442307D01*
X438307Y468221D02*
Y476221D01*
X443698Y466979D02*
X451698D01*
X447698Y462979D02*
Y470979D01*
X443618Y472108D02*
X451618D01*
X447618Y468108D02*
Y476108D01*
X454154Y472386D02*
X462154D01*
X458154Y468386D02*
Y476386D01*
X454258Y467326D02*
X462258D01*
X458258Y463326D02*
Y471326D01*
X392234Y476792D02*
X400234D01*
X396234Y472792D02*
Y480792D01*
X398329Y482464D02*
X406329D01*
X402329Y478464D02*
Y486464D01*
X405253Y481361D02*
X413253D01*
X409253Y477361D02*
Y485361D01*
X411233Y481451D02*
X419233D01*
X415233Y477451D02*
Y485451D01*
X414020Y477809D02*
X422020D01*
X418020Y473809D02*
Y481809D01*
X421767Y481432D02*
X429767D01*
X425767Y477432D02*
Y485432D01*
X417864Y481563D02*
X425864D01*
X421864Y477563D02*
Y485563D01*
X423980Y478231D02*
X431980D01*
X427980Y474231D02*
Y482231D01*
X437939Y481496D02*
X445939D01*
X441939Y477496D02*
Y485496D01*
X434072Y477585D02*
X442072D01*
X438072Y473585D02*
Y481585D01*
X443306Y481511D02*
X451306D01*
X447306Y477511D02*
Y485511D01*
X453658Y481564D02*
X461658D01*
X457658Y477564D02*
Y485564D01*
X391896Y486358D02*
X399896D01*
X395896Y482358D02*
Y490358D01*
X391811Y493300D02*
X399811D01*
X395811Y489300D02*
Y497300D01*
X398245Y493046D02*
X406245D01*
X402245Y489046D02*
Y497046D01*
X404170Y486612D02*
X412170D01*
X408170Y482612D02*
Y490612D01*
X411457Y491387D02*
X419457D01*
X415457Y487387D02*
Y495387D01*
X438557Y491436D02*
X446557D01*
X442557Y487436D02*
Y495436D01*
X444106Y491116D02*
X452106D01*
X448106Y487116D02*
Y495116D01*
X453551Y491276D02*
X461551D01*
X457551Y487276D02*
Y495276D01*
X391980Y505321D02*
X399980D01*
X395980Y501321D02*
Y509321D01*
X398075Y505490D02*
X406075D01*
X402075Y501490D02*
Y509490D01*
X411112Y505617D02*
X419112D01*
X415112Y501617D02*
Y509617D01*
X406304Y499942D02*
X414304D01*
X410304Y495942D02*
Y503942D01*
X424555Y505105D02*
X432555D01*
X428555Y501105D02*
Y509105D01*
X429962Y505093D02*
X437962D01*
X433962Y501093D02*
Y509093D01*
X432502Y505069D02*
X440502D01*
X436502Y501069D02*
Y509069D01*
X427283Y505079D02*
X435283D01*
X431283Y501079D02*
Y509079D01*
X436365Y501548D02*
X444365D01*
X440365Y497548D02*
Y505548D01*
X433263Y496423D02*
X441263D01*
X437263Y492423D02*
Y500423D01*
X443733Y498106D02*
X451733D01*
X447733Y494106D02*
Y502106D01*
X446122Y503788D02*
X454122D01*
X450122Y499788D02*
Y507788D01*
X448844Y505184D02*
X456844D01*
X452844Y501184D02*
Y509184D01*
X443749Y505079D02*
X451749D01*
X447749Y501079D02*
Y509079D01*
X453978Y505256D02*
X461978D01*
X457978Y501256D02*
Y509256D01*
X453497Y498426D02*
X461497D01*
X457497Y494426D02*
Y502426D01*
X408161Y510593D02*
X416161D01*
X412161Y506593D02*
Y514593D01*
X407697Y515590D02*
X415697D01*
X411697Y511590D02*
Y519590D01*
X406299Y510596D02*
X414299D01*
X410299Y506596D02*
Y514596D01*
X415581Y511395D02*
X423581D01*
X419581Y507395D02*
Y515395D01*
X424457Y510697D02*
X432457D01*
X428457Y506697D02*
Y514697D01*
X427185Y510672D02*
X435185D01*
X431185Y506672D02*
Y514672D01*
X429864Y510686D02*
X437864D01*
X433864Y506686D02*
Y514686D01*
X432404Y510661D02*
X440404D01*
X436404Y506661D02*
Y514661D01*
X424457Y508011D02*
X432457D01*
X428457Y504011D02*
Y512011D01*
X427185Y507985D02*
X435185D01*
X431185Y503985D02*
Y511985D01*
X429864Y508000D02*
X437864D01*
X433864Y504000D02*
Y512000D01*
X432404Y507975D02*
X440404D01*
X436404Y503975D02*
Y511975D01*
X432355Y513397D02*
X440355D01*
X436355Y509397D02*
Y517397D01*
X429816Y513421D02*
X437816D01*
X433816Y509421D02*
Y517421D01*
X427136Y513407D02*
X435136D01*
X431136Y509407D02*
Y517407D01*
X424408Y513433D02*
X432408D01*
X428408Y509433D02*
Y517433D01*
X442633Y508901D02*
X450633D01*
X446633Y504901D02*
Y512901D01*
X449232Y514509D02*
X457232D01*
X453232Y510509D02*
Y518509D01*
X442719Y515358D02*
X450719D01*
X446719Y511358D02*
Y519358D01*
X449373Y509341D02*
X457373D01*
X453373Y505341D02*
Y513341D01*
X454031Y514754D02*
X462031D01*
X458031Y510754D02*
Y518754D01*
X454138Y509738D02*
X462138D01*
X458138Y505738D02*
Y513738D01*
X391980Y517595D02*
X399980D01*
X395980Y513595D02*
Y521595D01*
X397991Y517595D02*
X405991D01*
X401991Y513595D02*
Y521595D01*
X411245Y523375D02*
X419245D01*
X415245Y519375D02*
Y527375D01*
X406200Y523375D02*
X414200D01*
X410200Y519375D02*
Y527375D01*
X416568Y521358D02*
X424568D01*
X420568Y517358D02*
Y525358D01*
X414248Y521424D02*
X422248D01*
X418248Y517424D02*
Y525424D01*
X439108Y523783D02*
X447108D01*
X443108Y519783D02*
Y527783D01*
X436276Y520668D02*
X444276D01*
X440276Y516668D02*
Y524668D01*
X436489Y516845D02*
X444489D01*
X440489Y512845D02*
Y520845D01*
X451862Y519787D02*
X459862D01*
X455862Y515787D02*
Y523787D01*
X443002Y524986D02*
X451002D01*
X447002Y520986D02*
Y528986D01*
X449373Y519748D02*
X457373D01*
X453373Y515748D02*
Y523748D01*
X454052Y522633D02*
X462052D01*
X458052Y518633D02*
Y526633D01*
X454198Y520127D02*
X462198D01*
X458198Y516127D02*
Y524127D01*
X453833Y524703D02*
X461833D01*
X457833Y520703D02*
Y528703D01*
X392234Y529786D02*
X400234D01*
X396234Y525786D02*
Y533786D01*
X397906Y529955D02*
X405906D01*
X401906Y525955D02*
Y533955D01*
X406364Y530234D02*
X414364D01*
X410364Y526234D02*
Y534234D01*
X410763Y530417D02*
X418763D01*
X414763Y526417D02*
Y534417D01*
X427903Y526093D02*
X435903D01*
X431903Y522093D02*
Y530093D01*
X431780Y530766D02*
X439780D01*
X435780Y526766D02*
Y534766D01*
X440664Y529891D02*
X448664D01*
X444664Y525891D02*
Y533891D01*
X435962Y531140D02*
X443962D01*
X439962Y527140D02*
Y535140D01*
X435962Y535501D02*
X443962D01*
X439962Y531501D02*
Y539501D01*
X443002Y532491D02*
X451002D01*
X447002Y528491D02*
Y536491D01*
X449444Y529871D02*
X457444D01*
X453444Y525871D02*
Y533871D01*
X454052Y527012D02*
X462052D01*
X458052Y523012D02*
Y531012D01*
X452842Y529022D02*
X460842D01*
X456842Y525022D02*
Y533022D01*
X392404Y542484D02*
X400404D01*
X396404Y538484D02*
Y546484D01*
X398329Y542653D02*
X406329D01*
X402329Y538653D02*
Y546653D01*
X407533Y545628D02*
X415533D01*
X411533Y541628D02*
Y549628D01*
X406331Y536994D02*
X414331D01*
X410331Y532994D02*
Y540994D01*
X411118Y538531D02*
X419118D01*
X415118Y534531D02*
Y542531D01*
X417131Y538949D02*
X425131D01*
X421131Y534949D02*
Y542949D01*
X413522Y545628D02*
X421522D01*
X417522Y541628D02*
Y549628D01*
X421836Y545426D02*
X429836D01*
X425836Y541426D02*
Y549426D01*
X428684Y545586D02*
X436684D01*
X432684Y541586D02*
Y549586D01*
X431232Y536707D02*
X439232D01*
X435232Y532707D02*
Y540707D01*
X440498Y537415D02*
X448498D01*
X444498Y533415D02*
Y541415D01*
X434156Y542008D02*
X442156D01*
X438156Y538008D02*
Y546008D01*
X435781Y544030D02*
X443781D01*
X439781Y540030D02*
Y548030D01*
X449216Y536104D02*
X457216D01*
X453216Y532104D02*
Y540104D01*
X452179Y543678D02*
X460179D01*
X456179Y539678D02*
Y547678D01*
X442931Y540774D02*
X450931D01*
X446931Y536774D02*
Y544774D01*
X449090Y540703D02*
X457090D01*
X453090Y536703D02*
Y544703D01*
X454218Y536104D02*
X462218D01*
X458218Y532104D02*
Y540104D01*
X454258Y544172D02*
X462258D01*
X458258Y540172D02*
Y548172D01*
X392488Y549256D02*
X400488D01*
X396488Y545256D02*
Y553256D01*
X401208Y549256D02*
X409208D01*
X405208Y545256D02*
Y553256D01*
X392742Y553404D02*
X400742D01*
X396742Y549404D02*
Y557404D01*
X401038Y553574D02*
X409038D01*
X405038Y549574D02*
Y557574D01*
X407811Y550187D02*
X415811D01*
X411811Y546187D02*
Y554187D01*
X407726Y553658D02*
X415726D01*
X411726Y549658D02*
Y557658D01*
X422117Y550018D02*
X430117D01*
X426117Y546018D02*
Y554018D01*
X413736Y549849D02*
X421736D01*
X417736Y545849D02*
Y553849D01*
X413743Y553809D02*
X421743D01*
X417743Y549809D02*
Y557809D01*
X422054Y553758D02*
X430054D01*
X426054Y549758D02*
Y557758D01*
X430369Y553960D02*
X438369D01*
X434369Y549960D02*
Y557960D01*
X429228Y549933D02*
X437228D01*
X433228Y545933D02*
Y553933D01*
X430542Y548278D02*
X438542D01*
X434542Y544278D02*
Y552278D01*
X440541Y553825D02*
X448541D01*
X444541Y549825D02*
Y557825D01*
X436913Y547428D02*
X444913D01*
X440913Y543428D02*
Y551428D01*
X437032Y553832D02*
X445032D01*
X441032Y549832D02*
Y557832D01*
X449711Y553803D02*
X457711D01*
X453711Y549803D02*
Y557803D01*
X442789Y547357D02*
X450789D01*
X446789Y543357D02*
Y551357D01*
X444476Y553885D02*
X452476D01*
X448476Y549885D02*
Y557885D01*
X454280Y550915D02*
X462280D01*
X458280Y546915D02*
Y554915D01*
X454251Y546324D02*
X462251D01*
X458251Y542324D02*
Y550324D01*
X454329Y548561D02*
X462329D01*
X458329Y544561D02*
Y552561D01*
X454187Y553871D02*
X462187D01*
X458187Y549871D02*
Y557871D01*
X393849Y464889D02*
Y585589D01*
X460812*
Y464889*
X393849*
X736368Y1019353D02*
X583677D01*
X736368D02*
X726368Y1016853D01*
Y1021853*
X736368Y1019353*
X393849D02*
X546540D01*
X393849D02*
X403849Y1021853D01*
Y1016853*
X393849Y1019353*
X736368Y960000D02*
Y1024353D01*
X393849Y960000D02*
Y1024353D01*
X551177Y1022009D02*
X550495Y1021728D01*
X550267Y1021166*
Y1020603*
X550495Y1020041*
X550949Y1019759*
X551858Y1019478*
X552540Y1019197*
X552995Y1018634*
X553222Y1018072*
Y1017228*
X552995Y1016666*
X552767Y1016384*
X552086Y1016103*
X551177*
X550495Y1016384*
X550267Y1016666*
X550040Y1017228*
Y1018072*
X550267Y1018634*
X550722Y1019197*
X551404Y1019478*
X552313Y1019759*
X552767Y1020041*
X552995Y1020603*
Y1021166*
X552767Y1021728*
X552086Y1022009*
X551177*
X558449D02*
X556177Y1016103D01*
X555267Y1022009D02*
X558449D01*
X560722Y1016666D02*
X560495Y1016384D01*
X560722Y1016103*
X560949Y1016384*
X560722Y1016666*
X564358Y1022009D02*
X563677Y1021728D01*
X563222Y1020884*
X562995Y1019478*
Y1018634*
X563222Y1017228*
X563677Y1016384*
X564358Y1016103*
X564813*
X565495Y1016384*
X565949Y1017228*
X566177Y1018634*
Y1019478*
X565949Y1020884*
X565495Y1021728*
X564813Y1022009*
X564358*
X568222Y1020041D02*
Y1016103D01*
Y1018916D02*
X568904Y1019759D01*
X569358Y1020041*
X570040*
X570495Y1019759*
X570722Y1018916*
Y1016103*
Y1018916D02*
X571404Y1019759D01*
X571858Y1020041*
X572540*
X572995Y1019759*
X573222Y1018916*
Y1016103*
X575267Y1020041D02*
Y1016103D01*
Y1018916D02*
X575949Y1019759D01*
X576404Y1020041*
X577086*
X577540Y1019759*
X577767Y1018916*
Y1016103*
Y1018916D02*
X578449Y1019759D01*
X578904Y1020041*
X579586*
X580040Y1019759*
X580267Y1018916*
Y1016103*
X810239Y464889D02*
Y703194D01*
Y464889D02*
X807739Y474889D01*
X812739*
X810239Y464889*
Y955000D02*
Y716694D01*
Y955000D02*
X812739Y945000D01*
X807739*
X810239Y955000*
X741368Y464889D02*
X815239D01*
X741368Y955000D02*
X815239D01*
X793352Y711476D02*
X793807Y711757D01*
X794489Y712601*
Y706694*
X796762Y711194D02*
Y711476D01*
X796989Y712038*
X797216Y712319*
X797671Y712601*
X798580*
X799034Y712319*
X799262Y712038*
X799489Y711476*
Y710913*
X799262Y710351*
X798807Y709507*
X796534Y706694*
X799716*
X804034Y712601D02*
X801762Y708663D01*
X805171*
X804034Y712601D02*
Y706694D01*
X807443Y707257D02*
X807216Y706976D01*
X807443Y706694*
X807671Y706976*
X807443Y707257*
X812671Y712601D02*
X810398D01*
X810171Y710069*
X810398Y710351*
X811080Y710632*
X811762*
X812443Y710351*
X812898Y709788*
X813125Y708944*
X812898Y708382*
X812671Y707538*
X812216Y706976*
X811534Y706694*
X810852*
X810171Y706976*
X809943Y707257*
X809716Y707819*
X815171Y710632D02*
Y706694D01*
Y709507D02*
X815852Y710351D01*
X816307Y710632*
X816989*
X817443Y710351*
X817671Y709507*
Y706694*
Y709507D02*
X818352Y710351D01*
X818807Y710632*
X819489*
X819943Y710351*
X820171Y709507*
Y706694*
X822216Y710632D02*
Y706694D01*
Y709507D02*
X822898Y710351D01*
X823352Y710632*
X824034*
X824489Y710351*
X824716Y709507*
Y706694*
Y709507D02*
X825398Y710351D01*
X825852Y710632*
X826534*
X826989Y710351*
X827216Y709507*
Y706694*
X393701Y465701D02*
X651701D01*
X393701Y441701D02*
X651701D01*
X393701Y417701D02*
X651701D01*
X393701Y393701D02*
X651701D01*
X393701Y465701D02*
Y393701D01*
X477701Y465701D02*
Y393701D01*
X513701Y465701D02*
Y393701D01*
X549701Y465701D02*
Y393701D01*
X603701Y465701D02*
Y393701D01*
X651701Y465701D02*
Y393701D01*
X429201Y454451D02*
X428655Y455201D01*
X427837Y455576*
X426746*
X425928Y455201*
X425383Y454451*
Y453701*
X425655Y452951*
X425928Y452576*
X426474Y452201*
X428110Y451451*
X428655Y451076*
X428928Y450701*
X429201Y449951*
Y448826*
X428655Y448076*
X427837Y447701*
X426746*
X425928Y448076*
X425383Y448826*
X431655Y455576D02*
Y447701D01*
X437928Y455576D02*
X434110Y447701D01*
Y455576D02*
X437928D01*
X434110Y447701D02*
X437928D01*
X440383Y455576D02*
Y447701D01*
Y455576D02*
X443928D01*
X440383Y451826D02*
X442564D01*
X440383Y447701D02*
X443928D01*
X487564Y455576D02*
X487019Y455201D01*
X486474Y454451*
X486201Y453701*
X485928Y452576*
Y450701*
X486201Y449576*
X486474Y448826*
X487019Y448076*
X487564Y447701*
X488655*
X489201Y448076*
X489746Y448826*
X490019Y449576*
X490292Y450701*
Y452576*
X490019Y453701*
X489746Y454451*
X489201Y455201*
X488655Y455576*
X487564*
X488383Y449201D02*
X490019Y446951D01*
X494655Y455576D02*
Y447701D01*
X492746Y455576D02*
X496564D01*
X499019D02*
X501201Y451826D01*
Y447701*
X503383Y455576D02*
X501201Y451826D01*
X525746Y454451D02*
X525201Y455201D01*
X524383Y455576*
X523292*
X522474Y455201*
X521928Y454451*
Y453701*
X522201Y452951*
X522474Y452576*
X523019Y452201*
X524655Y451451*
X525201Y451076*
X525474Y450701*
X525746Y449951*
Y448826*
X525201Y448076*
X524383Y447701*
X523292*
X522474Y448076*
X521928Y448826*
X528201Y455576D02*
X530383Y451826D01*
Y447701*
X532564Y455576D02*
X530383Y451826D01*
X535019Y455576D02*
Y447701D01*
Y455576D02*
X537201Y447701D01*
X539383Y455576D02*
X537201Y447701D01*
X539383Y455576D02*
Y447701D01*
X561201Y455576D02*
Y447701D01*
Y455576D02*
X563655D01*
X564474Y455201*
X564746Y454826*
X565019Y454076*
Y452951*
X564746Y452201*
X564474Y451826*
X563655Y451451*
X561201*
X567474Y455576D02*
Y447701D01*
X570746*
X575383Y455576D02*
X573201Y447701D01*
X575383Y455576D02*
X577564Y447701D01*
X574019Y450326D02*
X576746D01*
X581928Y455576D02*
Y447701D01*
X580019Y455576D02*
X583837D01*
X586292D02*
Y447701D01*
Y455576D02*
X589837D01*
X586292Y451826D02*
X588474D01*
X586292Y447701D02*
X589837D01*
X592292Y455576D02*
Y447701D01*
Y455576D02*
X594201D01*
X595019Y455201*
X595564Y454451*
X595837Y453701*
X596110Y452576*
Y450701*
X595837Y449576*
X595564Y448826*
X595019Y448076*
X594201Y447701*
X592292*
X620383Y455576D02*
Y447701D01*
X618474Y455576D02*
X622292D01*
X626383D02*
X625837Y455201D01*
X625292Y454451*
X625019Y453701*
X624746Y452576*
Y450701*
X625019Y449576*
X625292Y448826*
X625837Y448076*
X626383Y447701*
X627474*
X628019Y448076*
X628564Y448826*
X628837Y449576*
X629110Y450701*
Y452576*
X628837Y453701*
X628564Y454451*
X628019Y455201*
X627474Y455576*
X626383*
X631564D02*
Y447701D01*
X634837*
X401337Y431576D02*
X400519Y431201D01*
X399974Y430076*
X399701Y428201*
Y427076*
X399974Y425201*
X400519Y424076*
X401337Y423701*
X401883*
X402701Y424076*
X403246Y425201*
X403519Y427076*
Y428201*
X403246Y430076*
X402701Y431201*
X401883Y431576*
X401337*
X406246Y424451D02*
X405974Y424076D01*
X406246Y423701*
X406519Y424076*
X406246Y424451*
X409246Y429701D02*
Y430076D01*
X409519Y430826*
X409792Y431201*
X410337Y431576*
X411428*
X411974Y431201*
X412246Y430826*
X412519Y430076*
Y429326*
X412246Y428576*
X411701Y427451*
X408974Y423701*
X412792*
X416883Y431576D02*
X416064Y431201D01*
X415519Y430076*
X415246Y428201*
Y427076*
X415519Y425201*
X416064Y424076*
X416883Y423701*
X417428*
X418246Y424076*
X418792Y425201*
X419064Y427076*
Y428201*
X418792Y430076*
X418246Y431201*
X417428Y431576*
X416883*
X422064D02*
X425064D01*
X423428Y428576*
X424246*
X424792Y428201*
X425064Y427826*
X425337Y426701*
Y425951*
X425064Y424826*
X424519Y424076*
X423701Y423701*
X422883*
X422064Y424076*
X421792Y424451*
X421519Y425201*
X428064Y429701D02*
Y430076D01*
X428337Y430826*
X428610Y431201*
X429155Y431576*
X430246*
X430792Y431201*
X431064Y430826*
X431337Y430076*
Y429326*
X431064Y428576*
X430519Y427451*
X427792Y423701*
X431610*
X487564Y430076D02*
X488110Y430451D01*
X488928Y431576*
Y423701*
X494110Y431576D02*
X491383Y426326D01*
X495474*
X494110Y431576D02*
Y423701D01*
X498201Y429701D02*
Y430076D01*
X498474Y430826*
X498746Y431201*
X499292Y431576*
X500383*
X500928Y431201*
X501201Y430826*
X501474Y430076*
Y429326*
X501201Y428576*
X500655Y427451*
X497928Y423701*
X501746*
X525701Y429701D02*
X537701D01*
X531701Y423701D02*
Y435701D01*
X558337Y431576D02*
X560519Y427826D01*
Y423701*
X562701Y431576D02*
X560519Y427826D01*
X565155Y431576D02*
Y423701D01*
Y431576D02*
X568701D01*
X565155Y427826D02*
X567337D01*
X565155Y423701D02*
X568701D01*
X574974Y430451D02*
X574428Y431201D01*
X573610Y431576*
X572519*
X571701Y431201*
X571155Y430451*
Y429701*
X571428Y428951*
X571701Y428576*
X572246Y428201*
X573883Y427451*
X574428Y427076*
X574701Y426701*
X574974Y425951*
Y424826*
X574428Y424076*
X573610Y423701*
X572519*
X571701Y424076*
X571155Y424826*
X611519Y430451D02*
Y423701D01*
X609064Y427076D02*
X613974D01*
X621337Y433076D02*
X616428Y421076D01*
X623792Y427076D02*
X628701D01*
X632792Y431576D02*
X631974Y431201D01*
X631428Y430076*
X631155Y428201*
Y427076*
X631428Y425201*
X631974Y424076*
X632792Y423701*
X633337*
X634155Y424076*
X634701Y425201*
X634974Y427076*
Y428201*
X634701Y430076*
X634155Y431201*
X633337Y431576*
X632792*
X637701Y424451D02*
X637428Y424076D01*
X637701Y423701*
X637974Y424076*
X637701Y424451*
X642064Y431576D02*
X641246Y431201D01*
X640701Y430076*
X640428Y428201*
Y427076*
X640701Y425201*
X641246Y424076*
X642064Y423701*
X642610*
X643428Y424076*
X643974Y425201*
X644246Y427076*
Y428201*
X643974Y430076*
X643428Y431201*
X642610Y431576*
X642064*
X401337Y407576D02*
X400519Y407201D01*
X399974Y406076*
X399701Y404201*
Y403076*
X399974Y401201*
X400519Y400076*
X401337Y399701*
X401883*
X402701Y400076*
X403246Y401201*
X403519Y403076*
Y404201*
X403246Y406076*
X402701Y407201*
X401883Y407576*
X401337*
X406246Y400451D02*
X405974Y400076D01*
X406246Y399701*
X406519Y400076*
X406246Y400451*
X410337Y407576D02*
X409519Y407201D01*
X409246Y406451*
Y405701*
X409519Y404951*
X410064Y404576*
X411155Y404201*
X411974Y403826*
X412519Y403076*
X412792Y402326*
Y401201*
X412519Y400451*
X412246Y400076*
X411428Y399701*
X410337*
X409519Y400076*
X409246Y400451*
X408974Y401201*
Y402326*
X409246Y403076*
X409792Y403826*
X410610Y404201*
X411701Y404576*
X412246Y404951*
X412519Y405701*
Y406451*
X412246Y407201*
X411428Y407576*
X410337*
X416610D02*
X415792Y407201D01*
X415519Y406451*
Y405701*
X415792Y404951*
X416337Y404576*
X417428Y404201*
X418246Y403826*
X418792Y403076*
X419064Y402326*
Y401201*
X418792Y400451*
X418519Y400076*
X417701Y399701*
X416610*
X415792Y400076*
X415519Y400451*
X415246Y401201*
Y402326*
X415519Y403076*
X416064Y403826*
X416883Y404201*
X417974Y404576*
X418519Y404951*
X418792Y405701*
Y406451*
X418519Y407201*
X417701Y407576*
X416610*
X425064Y404951D02*
X424792Y403826D01*
X424246Y403076*
X423428Y402701*
X423155*
X422337Y403076*
X421792Y403826*
X421519Y404951*
Y405326*
X421792Y406451*
X422337Y407201*
X423155Y407576*
X423428*
X424246Y407201*
X424792Y406451*
X425064Y404951*
Y403076*
X424792Y401201*
X424246Y400076*
X423428Y399701*
X422883*
X422064Y400076*
X421792Y400826*
X494110Y407576D02*
X493292Y407201D01*
X493019Y406451*
Y405701*
X493292Y404951*
X493837Y404576*
X494928Y404201*
X495746Y403826*
X496292Y403076*
X496564Y402326*
Y401201*
X496292Y400451*
X496019Y400076*
X495201Y399701*
X494110*
X493292Y400076*
X493019Y400451*
X492746Y401201*
Y402326*
X493019Y403076*
X493564Y403826*
X494383Y404201*
X495474Y404576*
X496019Y404951*
X496292Y405701*
Y406451*
X496019Y407201*
X495201Y407576*
X494110*
X525701Y399701D02*
X537701Y411701D01*
X525701D02*
X537701Y399701D01*
X558337Y407576D02*
X560519Y403826D01*
Y399701*
X562701Y407576D02*
X560519Y403826D01*
X565155Y407576D02*
Y399701D01*
Y407576D02*
X568701D01*
X565155Y403826D02*
X567337D01*
X565155Y399701D02*
X568701D01*
X574974Y406451D02*
X574428Y407201D01*
X573610Y407576*
X572519*
X571701Y407201*
X571155Y406451*
Y405701*
X571428Y404951*
X571701Y404576*
X572246Y404201*
X573883Y403451*
X574428Y403076*
X574701Y402701*
X574974Y401951*
Y400826*
X574428Y400076*
X573610Y399701*
X572519*
X571701Y400076*
X571155Y400826*
X611519Y406451D02*
Y399701D01*
X609064Y403076D02*
X613974D01*
X621337Y409076D02*
X616428Y397076D01*
X623792Y403076D02*
X628701D01*
X632792Y407576D02*
X631974Y407201D01*
X631428Y406076*
X631155Y404201*
Y403076*
X631428Y401201*
X631974Y400076*
X632792Y399701*
X633337*
X634155Y400076*
X634701Y401201*
X634974Y403076*
Y404201*
X634701Y406076*
X634155Y407201*
X633337Y407576*
X632792*
X637701Y400451D02*
X637428Y400076D01*
X637701Y399701*
X637974Y400076*
X637701Y400451*
X642064Y407576D02*
X641246Y407201D01*
X640701Y406076*
X640428Y404201*
Y403076*
X640701Y401201*
X641246Y400076*
X642064Y399701*
X642610*
X643428Y400076*
X643974Y401201*
X644246Y403076*
Y404201*
X643974Y406076*
X643428Y407201*
X642610Y407576*
X642064*
G54D41*
X393849Y587557D02*
X736368D01*
X393849Y955000D02*
Y464889D01*
X736368*
X393849Y955000D02*
X736368D01*
Y464889*
X462781Y955000D02*
Y464889D01*
X531678Y955000D02*
Y464889D01*
X669474Y955000D02*
Y464889D01*
X600576Y955000D02*
Y464889D01*
X393849Y710392D02*
X736368D01*
X393849Y833226D02*
X736368D01*
G54D159*
Y955000D02*
X736371D01*
X393849D02*
X393851D01*
X736368Y464889D02*
X736371D01*
X736368Y955000D02*
X736371D01*
X0Y0D02*
M02*
