%
T1C.008F0S0
X041841Y046714
X0408Y046731
X039623Y046731
X041833Y047214
X040191Y047222
X040817Y047231
X039623Y047679
X041802Y047781
X040925Y048136
X041523Y048145
X040233Y048246
X03959Y048636
X040817Y048661
X041546Y049139
X040224Y049305
X039581Y04933
X04103Y049994
X039598Y050532
X040208Y050549
X041511Y050562
X041216Y051059
X04103Y05106
X041958Y051139
X04117Y051559
X039598Y05176
X040199Y05176
X042057Y052136
X041825Y052142
X041525Y052337
X04102Y052337
X039623Y052979
X040191Y052995
X041036Y053023
X041476Y053042
X041033Y053699
X041512Y053853
X03964Y054248
X040233Y054265
X041153Y054563
X041752Y054563
X039649Y054926
X040521Y054926
X041774Y054985
X041181Y055019
X039674Y05534
X040504Y055357
X041173Y055366
X041774Y055381
X043437Y055396
X044103Y055383
X044454Y055383
X042605Y055376
X042612Y055002
X043323Y054993
X043454Y054828
X044091Y054743
X043268Y054559
X042584Y054543
X043978Y054403
X043816Y054201
X042113Y053895
X04445Y053742
X043523Y053671
X043996Y05355
X043996Y053114
X043578Y053077
X044466Y052989
X04319Y052609
X044311Y052378
X044028Y052067
X044049Y051685
X042841Y051343
X043382Y051342
X043114Y051341
X043636Y05134
X042846Y05107
X043386Y051069
X043118Y051067
X04364Y051066
X042846Y050801
X043386Y0508
X043118Y050799
X04364Y050798
X042855Y050511
X043396Y050509
X043128Y050508
X04365Y050507
X044036Y050155
X043726Y049642
X044256Y049144
X042186Y048156
X044194Y04815
X042577Y048143
X042798Y047823
X043807Y047758
X043831Y047222
X042815Y047222
X042823Y046723
X043831Y046698
X04477Y046698
X045826Y046733
X044762Y047211
X045815Y047239
X044731Y048151
X045766Y048156
X044811Y049112
X045755Y049128
X044773Y049811
X04575Y049843
X045012Y050379
X044775Y050508
X045284Y050518
X045798Y050526
X044663Y05089
X045337Y050934
X045814Y050974
X045323Y051451
X045803Y051475
X044672Y051536
X045337Y051975
X045586Y051979
X04582Y052013
X045805Y052263
X045783Y05247
X0447Y052499
X045805Y052701
X045684Y052902
X045344Y052987
X0447Y053249
X045322Y05361
X045822Y05361
X045309Y05407
X044693Y054077
X045618Y054368
X045826Y054417
X045825Y054632
X044679Y054736
X045833Y054856
X045828Y055092
X045371Y05538
X045819Y055387
X044848Y055389
T2C.035F197S55
X041316Y047646
X042316Y047646
X043316Y047646
X044316Y047646
X041316Y048646
X043316Y048646
X042316Y048646
X044316Y048646
M30
