*
*
G04 PADS Layout (Build Number 2005.266.2) generated Gerber (RS-274-X) file*
G04 PC Version=2.1*
*
%IN "PCB-BK5812_module_QFN24"*%
*
%MOIN*%
*
%FSLAX35Y35*%
*
*
*
*
G04 PC Standard Apertures*
*
*
G04 Thermal Relief Aperture macro.*
%AMTER*
1,1,$1,0,0*
1,0,$1-$2,0,0*
21,0,$3,$4,0,0,45*
21,0,$3,$4,0,0,135*
%
*
*
G04 Annular Aperture macro.*
%AMANN*
1,1,$1,0,0*
1,0,$2,0,0*
%
*
*
G04 Odd Aperture macro.*
%AMODD*
1,1,$1,0,0*
1,0,$1-0.005,0,0*
%
*
*
G04 PC Custom Aperture Macros*
*
*
*
*
*
*
G04 PC Aperture Table*
*
%ADD026C,0.01*%
%ADD040C,0.00984*%
%ADD041C,0.01181*%
%ADD056C,0.00787*%
%ADD116C,0.00591*%
%ADD176C,0.006*%
*
*
*
*
G04 PC Copper Outlines (0)*
G04 Layer Name PCB-BK5812_module_QFN24 - dark (0)*
%LPD*%
*
*
G04 PC Area=Custom_Thermal*
*
G04 PC Custom Flashes*
G04 Layer Name PCB-BK5812_module_QFN24 - flashes*
%LPD*%
*
*
G04 PC Circuitry*
G04 Layer Name PCB-BK5812_module_QFN24 - circuitry*
%LPD*%
*
G54D26*
G01X393849Y464889D02*
Y585589D01*
X460812*
Y464889*
X393849*
G54D40*
X424385Y518675D02*
G75*
G03X424385I-1181J0D01*
G54D41*
G01X393849Y587557D02*
X736368D01*
X393849Y955000D02*
Y464889D01*
X736368*
X393849Y955000D02*
X736368D01*
Y464889*
X462781Y955000D02*
Y464889D01*
X531678Y955000D02*
Y464889D01*
X669474Y955000D02*
Y464889D01*
X600576Y955000D02*
Y464889D01*
X393849Y710392D02*
X736368D01*
X393849Y833226D02*
X736368D01*
G54D56*
X433335Y526796D02*
X417587D01*
Y538796*
X433335*
Y526796*
X426944Y514935D02*
X438361D01*
Y503518*
X426944*
Y514935*
G54D116*
X426747Y517101D02*
X424779D01*
Y515132*
X438558Y517101D02*
X440527D01*
Y515132*
X426747Y501353D02*
X424779D01*
Y503321*
X440527D02*
Y501353D01*
X438558*
X421629Y520250D02*
X443676D01*
Y498203*
X421629*
Y520250*
X413176Y534985D02*
X414680Y531884D01*
Y534985D02*
X413176Y531884D01*
X415646Y534394D02*
X415861Y534542D01*
X416183Y534985*
Y531884*
X454144Y531152D02*
X453886Y531045D01*
X453627Y530830*
X453498Y530615*
Y530186*
X453627Y529971*
X453886Y529756*
X454144Y529649*
X454532Y529541*
X455178*
X455565Y529649*
X455824Y529756*
X456082Y529971*
X456211Y530186*
Y530615*
X456082Y530830*
X455824Y531045*
X455565Y531152*
X453498Y532333D02*
Y533514D01*
X454532Y532870*
Y533192*
X454661Y533407*
X454790Y533514*
X455178Y533622*
X455436*
X455824Y533514*
X456082Y533299*
X456211Y532977*
Y532655*
X456082Y532333*
X455953Y532226*
X455694Y532118*
X443440Y528454D02*
Y525741D01*
X444729*
X445802Y527808D02*
Y527937D01*
X445910Y528195*
X446017Y528325*
X446232Y528454*
X446661*
X446876Y528325*
X446984Y528195*
X447091Y527937*
Y527679*
X446984Y527420*
X446769Y527033*
X445695Y525741*
X447198*
X412417Y525342D02*
X412309Y525601D01*
X412095Y525859*
X411880Y525988*
X411450*
X411236Y525859*
X411021Y525601*
X410913Y525342*
X410806Y524955*
Y524309*
X410913Y523921*
X411021Y523663*
X411236Y523405*
X411450Y523275*
X411880*
X412095Y523405*
X412309Y523663*
X412417Y523921*
X413383Y525472D02*
X413598Y525601D01*
X413920Y525988*
Y523275*
X415531Y525988D02*
X415208Y525859D01*
X414994Y525472*
X414886Y524826*
Y524438*
X414994Y523792*
X415208Y523405*
X415531Y523275*
X415745*
X416067Y523405*
X416282Y523792*
X416389Y524438*
Y524826*
X416282Y525472*
X416067Y525859*
X415745Y525988*
X415531*
X406294Y525135D02*
X406187Y525393D01*
X405972Y525652*
X405757Y525781*
X405328*
X405113Y525652*
X404898Y525393*
X404791Y525135*
X404684Y524747*
Y524101*
X404791Y523714*
X404898Y523455*
X405113Y523197*
X405328Y523068*
X405757*
X405972Y523197*
X406187Y523455*
X406294Y523714*
X407261Y525264D02*
X407475Y525393D01*
X407797Y525781*
Y523068*
X408764Y525264D02*
X408979Y525393D01*
X409301Y525781*
Y523068*
X453578Y513350D02*
X456291D01*
Y514638*
X454095Y515605D02*
X453966Y515819D01*
X453578Y516141*
X456291*
X453537Y508000D02*
X453278Y507892D01*
X453020Y507678*
X452891Y507463*
Y507033*
X453020Y506819*
X453278Y506604*
X453537Y506497*
X453924Y506389*
X454570*
X454958Y506497*
X455216Y506604*
X455474Y506819*
X455604Y507033*
Y507463*
X455474Y507678*
X455216Y507892*
X454958Y508000*
X453408Y508966D02*
X453278Y509181D01*
X452891Y509503*
X455604*
X445051Y524090D02*
X444943Y524349D01*
X444729Y524607*
X444514Y524736*
X444084*
X443870Y524607*
X443655Y524349*
X443548Y524090*
X443440Y523703*
Y523057*
X443548Y522669*
X443655Y522411*
X443870Y522153*
X444084Y522023*
X444514*
X444729Y522153*
X444943Y522411*
X445051Y522669*
X446125Y524090D02*
Y524219D01*
X446232Y524478*
X446339Y524607*
X446554Y524736*
X446984*
X447198Y524607*
X447306Y524478*
X447413Y524219*
Y523961*
X447306Y523703*
X447091Y523315*
X446017Y522023*
X447520*
X454592Y543634D02*
X454485Y543893D01*
X454270Y544151*
X454055Y544280*
X453626*
X453411Y544151*
X453196Y543893*
X453089Y543634*
X452982Y543247*
Y542601*
X453089Y542213*
X453196Y541955*
X453411Y541697*
X453626Y541567*
X454055*
X454270Y541697*
X454485Y541955*
X454592Y542213*
X456632Y544280D02*
X455558Y542472D01*
X457169*
X456632Y544280D02*
Y541567D01*
X432726Y548164D02*
X432468Y548056D01*
X432210Y547842*
X432080Y547627*
Y547197*
X432210Y546983*
X432468Y546768*
X432726Y546660*
X433114Y546553*
X433760*
X434147Y546660*
X434406Y546768*
X434664Y546983*
X434793Y547197*
Y547627*
X434664Y547842*
X434406Y548056*
X434147Y548164*
X432080Y550526D02*
Y549452D01*
X433243Y549345*
X433114Y549452*
X432985Y549774*
Y550096*
X433114Y550418*
X433372Y550633*
X433760Y550741*
X434018Y550633*
X434406Y550526*
X434664Y550311*
X434793Y549989*
Y549667*
X434664Y549345*
X434535Y549237*
X434277Y549130*
X445860Y502119D02*
Y500181D01*
X445967Y499794*
X446182Y499536*
X446504Y499406*
X446719*
X447041Y499536*
X447255Y499794*
X447363Y500181*
Y502119*
X448329Y501602D02*
X448544Y501732D01*
X448866Y502119*
Y499406*
X441540Y547631D02*
Y544531D01*
X442829*
X445191Y547631D02*
X444117D01*
X444010Y546303*
X444117Y546450*
X444439Y546598*
X444761*
X445084Y546450*
X445298Y546155*
X445406Y545712*
X445298Y545417*
X445191Y544974*
X444976Y544679*
X444654Y544531*
X444332*
X444010Y544679*
X443902Y544826*
X443795Y545121*
X404618Y518886D02*
X404511Y519181D01*
X404296Y519476*
X404081Y519624*
X403652*
X403437Y519476*
X403222Y519181*
X403115Y518886*
X403008Y518443*
Y517704*
X403115Y517262*
X403222Y516966*
X403437Y516671*
X403652Y516523*
X404081*
X404296Y516671*
X404511Y516966*
X404618Y517262*
X405585Y519033D02*
X405799Y519181D01*
X406121Y519624*
Y516523*
X407195Y518886D02*
Y519033D01*
X407303Y519328*
X407410Y519476*
X407625Y519624*
X408054*
X408269Y519476*
X408376Y519328*
X408484Y519033*
Y518738*
X408376Y518443*
X408162Y518000*
X407088Y516523*
X408591*
X413636Y509808D02*
X413528Y510103D01*
X413314Y510399*
X413099Y510546*
X412669*
X412455Y510399*
X412240Y510103*
X412133Y509808*
X412025Y509365*
Y508627*
X412133Y508184*
X412240Y507889*
X412455Y507593*
X412669Y507446*
X413099*
X413314Y507593*
X413528Y507889*
X413636Y508184*
X416105Y510546D02*
X415032Y507446D01*
X414602Y510546D02*
X416105D01*
X440389Y533201D02*
X440094Y533094D01*
X439799Y532879*
X439651Y532665*
Y532235*
X439799Y532020*
X440094Y531806*
X440389Y531698*
X440832Y531591*
X441570*
X442013Y531698*
X442308Y531806*
X442604Y532020*
X442751Y532235*
Y532665*
X442604Y532879*
X442308Y533094*
X442013Y533201*
X439651Y534705D02*
X439799Y534383D01*
X440094Y534275*
X440389*
X440684Y534383*
X440832Y534597*
X440980Y535027*
X441127Y535349*
X441423Y535564*
X441718Y535671*
X442161*
X442456Y535564*
X442604Y535456*
X442751Y535134*
Y534705*
X442604Y534383*
X442456Y534275*
X442161Y534168*
X441718*
X441423Y534275*
X441127Y534490*
X440980Y534812*
X440832Y535242*
X440684Y535456*
X440389Y535564*
X440094*
X439799Y535456*
X439651Y535134*
Y534705*
X435087Y533217D02*
X434792Y533110D01*
X434497Y532895*
X434349Y532680*
Y532251*
X434497Y532036*
X434792Y531821*
X435087Y531714*
X435530Y531607*
X436268*
X436711Y531714*
X437006Y531821*
X437302Y532036*
X437449Y532251*
Y532680*
X437302Y532895*
X437006Y533110*
X436711Y533217*
X435382Y535579D02*
X435825Y535472D01*
X436121Y535257*
X436268Y534935*
Y534828*
X436121Y534506*
X435825Y534291*
X435382Y534184*
X435235*
X434792Y534291*
X434497Y534506*
X434349Y534828*
Y534935*
X434497Y535257*
X434792Y535472*
X435382Y535579*
X436121*
X436859Y535472*
X437302Y535257*
X437449Y534935*
Y534721*
X437449D02*
X437302Y534398D01*
X437006Y534291*
X453498Y536880D02*
X456211D01*
Y538168*
X453498Y539349D02*
Y540531D01*
X454532Y539886*
Y540208*
X454661Y540423*
X454790Y540531*
X455178Y540638*
X455436*
X455824Y540531*
X456082Y540316*
X456211Y539994*
Y539672*
X456082Y539349*
X455953Y539242*
X455694Y539135*
X450781Y556332D02*
Y553620D01*
X452069*
X454110Y556332D02*
X453036Y554524D01*
X454646*
X454110Y556332D02*
Y553620D01*
X400101Y578889D02*
X399242Y575788D01*
X400101Y578889D02*
X400960Y575788D01*
X399564Y576822D02*
X400638D01*
X401927Y578889D02*
Y575788D01*
Y578889D02*
X403430Y575788D01*
Y578889D02*
Y575788D01*
X405148Y578889D02*
Y575788D01*
X404396Y578889D02*
X405899D01*
X406866Y578298D02*
X407080Y578446D01*
X407403Y578889*
Y575788*
X396654Y467822D02*
X399367D01*
X396654D02*
Y468788D01*
X396783Y469110*
X396912Y469217*
X397171Y469325*
X397429*
X397687Y469217*
X397817Y469110*
X397946Y468788*
Y467822D02*
Y468788D01*
X398075Y469110*
X398204Y469217*
X398463Y469325*
X398850*
X399108Y469217*
X399238Y469110*
X399367Y468788*
Y467822*
X396654Y470291D02*
X399367D01*
X396654Y471794D02*
X398463Y470291D01*
X397817Y470828D02*
X399367Y471794D01*
X396654Y474157D02*
Y473083D01*
X397817Y472975*
X397687Y473083*
X397558Y473405*
Y473727*
X397687Y474049*
X397946Y474264*
X398333Y474371*
X398592Y474264*
X398979Y474157*
X399238Y473942*
X399367Y473620*
Y473298*
X399238Y472975*
X399108Y472868*
X398850Y472761*
X396654Y475875D02*
X396783Y475552D01*
X397042Y475445*
X397300*
X397558Y475552*
X397687Y475767*
X397817Y476197*
X397946Y476519*
X398204Y476733*
X398463Y476841*
X398850*
X399108Y476733*
X399238Y476626*
X399367Y476304*
Y475875*
X399238Y475552*
X399108Y475445*
X398850Y475338*
X398463*
X398204Y475445*
X397946Y475660*
X397817Y475982*
X397687Y476411*
X397558Y476626*
X397300Y476733*
X397042*
X396783Y476626*
X396654Y476304*
Y475875*
X397171Y477807D02*
X397042Y478022D01*
X396654Y478344*
X399367*
X397300Y479418D02*
X397171D01*
X396912Y479525*
X396783Y479633*
X396654Y479847*
Y480277*
X396783Y480492*
X396912Y480599*
X397171Y480706*
X397429*
X397687Y480599*
X398075Y480384*
X399367Y479310*
Y480814*
X399884Y481780D02*
Y484035D01*
X397558Y484679D02*
X399367D01*
X398075D02*
X397687Y485001D01*
X397558Y485216*
Y485538*
X397687Y485753*
X398075Y485860*
X399367*
X398075D02*
X397687Y486182D01*
X397558Y486397*
Y486719*
X397687Y486934*
X398075Y487041*
X399367*
X397558Y488545D02*
X397687Y488330D01*
X397946Y488115*
X398333Y488008*
X398592*
X398979Y488115*
X399238Y488330*
X399367Y488545*
Y488867*
X399238Y489081*
X398979Y489296*
X398592Y489403*
X398592D02*
X398333D01*
X398333D02*
X397946Y489296D01*
X397687Y489081*
X397558Y488867*
Y488545*
X396654Y491658D02*
X399367D01*
X397946D02*
X397687Y491444D01*
X397558Y491229*
Y490907*
X397687Y490692*
X397946Y490477*
X398333Y490370*
X398592*
X398979Y490477*
X399238Y490692*
X399367Y490907*
Y491229*
X399238Y491444*
X398979Y491658*
X397558Y492625D02*
X398850D01*
X399238Y492732*
X399367Y492947*
Y493269*
X399238Y493484*
X398850Y493806*
X397558D02*
X399367D01*
X396654Y494772D02*
X399367D01*
X398333Y495739D02*
Y497027D01*
X398075*
X397817Y496920*
X397687Y496812*
X397558Y496597*
Y496275*
X397687Y496061*
X397946Y495846*
X398333Y495739*
X398333D02*
X398592D01*
X398592D02*
X398979Y495846D01*
X399238Y496061*
X399367Y496275*
Y496597*
X399238Y496812*
X398979Y497027*
X399884Y497993D02*
Y500248D01*
X396654Y501537D02*
X396783Y501322D01*
X397042Y501107*
X397300Y501000*
X397687Y500892*
X398333*
X398721Y501000*
X398979Y501107*
X399238Y501322*
X399367Y501537*
Y501966*
X399238Y502181*
X398979Y502396*
X398721Y502503*
X398333Y502610*
X397687*
X397300Y502503*
X397042Y502396*
X396783Y502181*
X396654Y501966*
Y501537*
X398850Y501859D02*
X399625Y502503D01*
X396654Y503577D02*
X399367D01*
X396654D02*
Y504973D01*
X397946Y503577D02*
Y504436D01*
X396654Y505939D02*
X399367D01*
X396654D02*
X399367Y507442D01*
X396654D02*
X399367D01*
X397300Y508516D02*
X397171D01*
X396912Y508623*
X396783Y508731*
X396654Y508945*
Y509375*
X396783Y509590*
X396912Y509697*
X397171Y509804*
X397429*
X397687Y509697*
X398075Y509482*
X399367Y508409*
Y509912*
X396654Y511952D02*
X398463Y510878D01*
Y512489*
X396654Y511952D02*
X399367D01*
X399884Y513455D02*
Y515710D01*
X396654Y516354D02*
X399367Y517213D01*
X396654Y518072D02*
X399367Y517213D01*
X396654Y519253D02*
Y520434D01*
X397687Y519790*
Y520112*
X397817Y520327*
X397946Y520434*
X398333Y520542*
X398592*
X398979Y520434*
X399238Y520220*
X399367Y519897*
Y519575*
X399238Y519253*
X399108Y519146*
X398850Y519038*
X402832Y467989D02*
X402703D01*
X402444Y468097*
X402315Y468204*
X402186Y468419*
Y468848*
X402315Y469063*
X402444Y469170*
X402703Y469278*
X402961*
X403219Y469170*
X403607Y468956*
X404899Y467882*
Y469385*
X402186Y470996D02*
X402315Y470674D01*
X402703Y470459*
X403349Y470351*
X403736*
X404382Y470459*
X404770Y470674*
X404899Y470996*
Y471210*
X404770Y471533*
X404382Y471747*
X403736Y471855*
X403349*
X402703Y471747*
X402315Y471533*
X402186Y471210*
Y470996*
X402703Y472821D02*
X402573Y473036D01*
X402186Y473358*
X404899*
X402186Y475827D02*
X404899Y474754D01*
X402186Y474324D02*
Y475827D01*
X403736Y476794D02*
Y478727D01*
X402186Y480337D02*
X402315Y480015D01*
X402703Y479800*
X403349Y479693*
X403736*
X404382Y479800*
X404770Y480015*
X404899Y480337*
Y480552*
X404770Y480874*
X404382Y481089*
X403736Y481196*
X403349*
X402703Y481089*
X402315Y480874*
X402186Y480552*
Y480337*
X402703Y482162D02*
X402573Y482377D01*
X402186Y482699*
X404899*
X403736Y483666D02*
Y485598D01*
X402186Y487209D02*
X402315Y486887D01*
X402703Y486672*
X403349Y486565*
X403736*
X404382Y486672*
X404770Y486887*
X404899Y487209*
Y487424*
X404770Y487746*
X404382Y487961*
X403736Y488068*
X403349*
X402703Y487961*
X402315Y487746*
X402186Y487424*
Y487209*
Y490430D02*
Y489356D01*
X403349Y489249*
X403219Y489356*
X403090Y489679*
Y490001*
X403219Y490323*
X403478Y490538*
X403865Y490645*
X404124Y490538*
X404511Y490430*
X404770Y490215*
X404899Y489893*
Y489571*
X404770Y489249*
X404640Y489142*
X404382Y489034*
X411675Y469113D02*
X411568Y469371D01*
X411353Y469630*
X411138Y469759*
X410709*
X410494Y469630*
X410279Y469371*
X410172Y469113*
X410064Y468725*
Y468080*
X410172Y467692*
X410279Y467434*
X410494Y467175*
X410709Y467046*
X411138*
X411353Y467175*
X411568Y467434*
X411675Y467692*
Y468080*
X411138D02*
X411675D01*
X412641Y469759D02*
Y467046D01*
Y469759D02*
X414145Y467046D01*
Y469759D02*
Y467046D01*
X415111Y469759D02*
Y467046D01*
Y469759D02*
X415863D01*
X416185Y469630*
X416399Y469371*
X416507Y469113*
X416614Y468725*
Y468080*
X416507Y467692*
X416399Y467434*
X416185Y467175*
X415863Y467046*
X415111*
X423250Y469000D02*
X423143Y469259D01*
X422928Y469517*
X422713Y469646*
X422284*
X422069Y469517*
X421854Y469259*
X421747Y469000*
X421640Y468613*
Y467967*
X421747Y467579*
X421854Y467321*
X422069Y467063*
X422284Y466933*
X422713*
X422928Y467063*
X423143Y467321*
X423250Y467579*
X424216Y469646D02*
Y466933D01*
Y469646D02*
X425612D01*
X424216Y468354D02*
X425075D01*
X424216Y466933D02*
X425612D01*
X429894Y469267D02*
X429680Y469525D01*
X429358Y469654*
X428928*
X428606Y469525*
X428391Y469267*
Y469009*
X428499Y468750*
X428606Y468621*
X428821Y468492*
X429465Y468233*
X429680Y468104*
X429787Y467975*
X429894Y467717*
Y467329*
X429680Y467071*
X429358Y466942*
X428928*
X428606Y467071*
X428391Y467329*
X432471Y469009D02*
X432364Y469267D01*
X432149Y469525*
X431935Y469654*
X431505*
X431290Y469525*
X431076Y469267*
X430968Y469009*
X430861Y468621*
Y467975*
X430968Y467588*
X430968D02*
X431076Y467329D01*
X431290Y467071*
X431505Y466942*
X431935*
X432149Y467071*
X432364Y467329*
X432471Y467588*
X433438Y469654D02*
Y466942D01*
X434941Y469654D02*
X433438Y467846D01*
X433975Y468492D02*
X434941Y466942D01*
X439073Y469562D02*
Y466850D01*
Y469562D02*
X439932Y466850D01*
X440791Y469562D02*
X439932Y466850D01*
X440791Y469562D02*
Y466850D01*
X441757Y469562D02*
Y466850D01*
X444227Y469175D02*
X444012Y469433D01*
X443690Y469562*
X443260*
X442938Y469433*
X442723Y469175*
Y468916*
X442831Y468658*
X442938Y468529*
X443153Y468400*
X443797Y468141*
X444012Y468012*
X444119Y467883*
X444227Y467625*
Y467237*
X444012Y466979*
X443690Y466850*
X443260*
X442938Y466979*
X442723Y467237*
X445837Y469562D02*
X445622Y469433D01*
X445408Y469175*
X445300Y468916*
X445193Y468529*
Y467883*
X445300Y467495*
X445408Y467237*
X445622Y466979*
X445837Y466850*
X446267*
X446481Y466979*
X446696Y467237*
X446804Y467495*
X446911Y467883*
Y468529*
X446804Y468916*
X446696Y469175*
X446481Y469433*
X446267Y469562*
X445837*
X410859Y495743D02*
X411718Y493031D01*
X412577Y495743D02*
X411718Y493031D01*
X415154Y495098D02*
X415047Y495356D01*
X414832Y495614*
X414617Y495743*
X414188*
X413973Y495614*
X413758Y495356*
X413651Y495098*
X413543Y494710*
Y494064*
X413651Y493677*
X413758Y493418*
X413973Y493160*
X414188Y493031*
X414617*
X414832Y493160*
X415047Y493418*
X415154Y493677*
X417731Y495098D02*
X417624Y495356D01*
X417409Y495614*
X417194Y495743*
X416765*
X416550Y495614*
X416335Y495356*
X416228Y495098*
X416120Y494710*
Y494064*
X416228Y493677*
X416335Y493418*
X416550Y493160*
X416765Y493031*
X417194*
X417409Y493160*
X417624Y493418*
X417731Y493677*
X422868Y494819D02*
X422761Y495077D01*
X422546Y495335*
X422332Y495465*
X421902*
X421687Y495335*
X421473Y495077*
X421365Y494819*
X421258Y494431*
Y493785*
X421365Y493398*
X421473Y493139*
X421687Y492881*
X421902Y492752*
X422332*
X422546Y492881*
X422761Y493139*
X422868Y493398*
X425338Y495077D02*
X425123Y495335D01*
X424801Y495465*
X424372*
X424050Y495335*
X423835Y495077*
Y494819*
X423942Y494560*
X424050Y494431*
X424264Y494302*
X424908Y494044*
X425123Y493914*
X425231Y493785*
X425338Y493527*
Y493139*
X425123Y492881*
X424801Y492752*
X424372*
X424050Y492881*
X423835Y493139*
X426304Y495465D02*
Y492752D01*
Y495465D02*
X427808Y492752D01*
Y495465D02*
Y492752D01*
X431143Y495838D02*
Y493125D01*
Y495838D02*
X432002Y493125D01*
X432861Y495838D02*
X432002Y493125D01*
X432861Y495838D02*
Y493125D01*
X434471Y495838D02*
X434257Y495708D01*
X434042Y495450*
X433934Y495192*
X433827Y494804*
Y494158*
X433934Y493771*
X434042Y493512*
X434257Y493254*
X434471Y493125*
X434901*
X435116Y493254*
X435116D02*
X435330Y493512D01*
X435438Y493771*
X435545Y494158*
Y494804*
X435438Y495192*
X435330Y495450*
X435116Y495708*
X435116D02*
X434901Y495838D01*
X434471*
X438015Y495450D02*
X437800Y495708D01*
X437478Y495838*
X437048*
X436726Y495708*
X436511Y495450*
Y495192*
X436619Y494933*
X436726Y494804*
X436941Y494675*
X437585Y494417*
X437800Y494287*
X437907Y494158*
X438015Y493900*
Y493512*
X437800Y493254*
X437478Y493125*
X437048*
X436726Y493254*
X436511Y493512*
X438981Y495838D02*
Y493125D01*
X441401Y495838D02*
Y493125D01*
X442367Y495838D02*
Y493125D01*
Y495838D02*
X443333D01*
X443655Y495708*
X443763Y495579*
X443870Y495321*
Y495062*
X443763Y494804*
X443655Y494675*
X443333Y494546*
X442367*
X443119D02*
X443870Y493125D01*
X445481Y495838D02*
X445266Y495708D01*
X445051Y495450*
X444944Y495192*
X444837Y494804*
Y494158*
X444944Y493771*
X445051Y493512*
X445266Y493254*
X445481Y493125*
X445910*
X446125Y493254*
X446340Y493512*
X446447Y493771*
X446555Y494158*
Y494804*
X446447Y495192*
X446340Y495450*
X446125Y495708*
X445910Y495838*
X445481*
X445803Y493641D02*
X446447Y492866D01*
G54D176*
X451841Y533806D02*
Y536493D01*
X448298*
Y533806*
X451841Y531306D02*
Y528619D01*
X448298*
Y531306*
X450985Y528276D02*
X448298D01*
Y524733*
X450985*
X453485Y528276D02*
X456172D01*
Y524733*
X453485*
X428586Y525709D02*
X425899D01*
Y522165*
X428586*
X431086Y525709D02*
X433773D01*
Y522165*
X431086*
X422316Y522167D02*
X425003D01*
Y525710*
X422316*
X419816Y522167D02*
X417129D01*
Y525710*
X419816*
X451841Y518699D02*
Y521386D01*
X448298*
Y518699*
X451841Y516199D02*
Y513512D01*
X448298*
Y516199*
X451841Y510556D02*
Y513243D01*
X448298*
Y510556*
X451841Y508056D02*
Y505369D01*
X448298*
Y508056*
X450985Y524887D02*
X448298D01*
Y521343*
X450985*
X453485Y524887D02*
X456172D01*
Y521343*
X453485*
X450985Y548536D02*
X448298D01*
Y544992*
X450985*
X453485Y548536D02*
X456172D01*
Y544992*
X453485*
X439364Y549744D02*
Y552431D01*
X435821*
Y549744*
X439364Y547244D02*
Y544557D01*
X435821*
Y547244*
X442569Y552431D02*
X439882D01*
Y548888*
X442569*
X445069Y552431D02*
X447756D01*
Y548888*
X445069*
X415083Y515837D02*
X417770D01*
Y519381*
X415083*
X412583Y515837D02*
X409896D01*
Y519381*
X412583*
X415041Y511828D02*
X417728D01*
Y515372*
X415041*
X412541Y511828D02*
X409854D01*
Y515372*
X412541*
X438142Y525114D02*
Y522427D01*
X441685*
Y525114*
X438142Y527614D02*
Y530301D01*
X441685*
Y527614*
X434205Y525114D02*
Y522427D01*
X437748*
Y525114*
X434205Y527614D02*
Y530301D01*
X437748*
Y527614*
X451841Y541823D02*
Y544510D01*
X448298*
Y541823*
X451841Y539323D02*
Y536636D01*
X448298*
Y539323*
X450985Y552431D02*
X448298D01*
Y548888*
X450985*
X453485Y552431D02*
X456172D01*
Y548888*
X453485*
G74*
X0Y0D02*
M02*
